<svg width="24" height="24" viewBox="0 0 24 24" fill="none" xmlns="http://www.w3.org/2000/svg">
<path d="M3 12.5833L3.04737 12.6013L3.09474 12.6189L3.14211 12.6362L3.18947 12.6531L3.23684 12.6698L3.28421 12.6861L3.33158 12.7021L3.37895 12.7178L3.42632 12.7331L3.47368 12.748L3.52105 12.7626L3.56842 12.7768L3.61579 12.7906L3.66316 12.804L3.71053 12.817L3.75789 12.8296L3.80526 12.8418L3.85263 12.8536L3.9 12.865L3.94737 12.8759L3.99474 12.8864L4.04211 12.8965L4.08947 12.9061L4.13684 12.9153L4.18421 12.924L4.23158 12.9323L4.27895 12.9401L4.32632 12.9474L4.37368 12.9543L4.42105 12.9607L4.46842 12.9667L4.51579 12.9721L4.56316 12.9771L4.61053 12.9816L4.65789 12.9856L4.70526 12.9891L4.75263 12.9921L4.8 12.9947L4.84737 12.9967L4.89474 12.9983L4.94211 12.9993L4.98947 12.9999L5.03684 13L5.08421 12.9996L5.13158 12.9987L5.17895 12.9973L5.22632 12.9954L5.27368 12.993L5.32105 12.9901L5.36842 12.9868L5.41579 12.9829L5.46316 12.9786L5.51053 12.9737L5.55789 12.9684L5.60526 12.9627L5.65263 12.9564L5.7 12.9497L5.74737 12.9425L5.79474 12.9348L5.84211 12.9267L5.88947 12.9181L5.93684 12.9091L5.98421 12.8996L6.03158 12.8897L6.07895 12.8793L6.12632 12.8685L6.17368 12.8573L6.22105 12.8456L6.26842 12.8335L6.31579 12.8211L6.36316 12.8082L6.41053 12.7949L6.45789 12.7812L6.50526 12.7671L6.55263 12.7527L6.6 12.7379L6.64737 12.7227L6.69474 12.7072L6.74211 12.6913L6.78947 12.6751L6.83684 12.6585L6.88421 12.6416L6.93158 12.6244L6.97895 12.6069L7.02632 12.5891L7.07368 12.571L7.12105 12.5526L7.16842 12.5339L7.21579 12.515L7.26316 12.4958L7.31053 12.4764L7.35789 12.4568L7.40526 12.4369L7.45263 12.4168L7.5 12.3965L7.54737 12.376L7.59474 12.3553L7.64211 12.3344L7.68947 12.3134L7.73684 12.2922L7.78421 12.2709L7.83158 12.2495L7.87895 12.2279L7.92632 12.2062L7.97368 12.1844L8.02105 12.1625L8.06842 12.1406L8.11579 12.1185L8.16316 12.0964L8.21053 12.0743L8.25789 12.0521L8.30526 12.0299L8.35263 12.0077L8.4 11.9855L8.44737 11.9632L8.49474 11.941L8.54211 11.9189L8.58947 11.8968L8.63684 11.8747L8.68421 11.8527L8.73158 11.8307L8.77895 11.8089L8.82632 11.7871L8.87368 11.7654L8.92105 11.7439L8.96842 11.7225L9.01579 11.7012L9.06316 11.6801L9.11053 11.6591L9.15789 11.6383L9.20526 11.6177L9.25263 11.5972L9.3 11.577L9.34737 11.557L9.39474 11.5371L9.44211 11.5176L9.48947 11.4982L9.53684 11.4791L9.58421 11.4603L9.63158 11.4417L9.67895 11.4234L9.72632 11.4054L9.77368 11.3877L9.82105 11.3703L9.86842 11.3532L9.91579 11.3364L9.96316 11.3199L10.0105 11.3038L10.0579 11.288L10.1053 11.2726L10.1526 11.2575L10.2 11.2428L10.2474 11.2285L10.2947 11.2145L10.3421 11.201L10.3895 11.1878L10.4368 11.1751L10.4842 11.1627L10.5316 11.1508L10.5789 11.1392L10.6263 11.1281L10.6737 11.1175L10.7211 11.1072L10.7684 11.0974L10.8158 11.0881L10.8632 11.0792L10.9105 11.0708L10.9579 11.0628L11.0053 11.0553L11.0526 11.0482L11.1 11.0416L11.1474 11.0355L11.1947 11.0299L11.2421 11.0247L11.2895 11.0201L11.3368 11.0159L11.3842 11.0122L11.4316 11.009L11.4789 11.0062L11.5263 11.004L11.5737 11.0023L11.6211 11.001L11.6684 11.0003L11.7158 11L11.7632 11.0002L11.8105 11.001L11.8579 11.0022L11.9053 11.0039L11.9526 11.0061L12 11.0088L12.0474 11.012L12.0947 11.0156L12.1421 11.0198L12.1895 11.0244L12.2368 11.0296L12.2842 11.0352L12.3316 11.0412L12.3789 11.0478L12.4263 11.0548L12.4737 11.0623L12.5211 11.0703L12.5684 11.0787L12.6158 11.0875L12.6632 11.0969L12.7105 11.1066L12.7579 11.1168L12.8053 11.1275L12.8526 11.1385L12.9 11.15L12.9474 11.1619L12.9947 11.1743L13.0421 11.187L13.0895 11.2002L13.1368 11.2137L13.1842 11.2276L13.2316 11.2419L13.2789 11.2566L13.3263 11.2716L13.3737 11.287L13.4211 11.3028L13.4684 11.3189L13.5158 11.3353L13.5632 11.3521L13.6105 11.3692L13.6579 11.3866L13.7053 11.4043L13.7526 11.4223L13.8 11.4406L13.8474 11.4591L13.8947 11.478L13.9421 11.497L13.9895 11.5164L14.0368 11.5359L14.0842 11.5557L14.1316 11.5757L14.1789 11.596L14.2263 11.6164L14.2737 11.637L14.3211 11.6578L14.3684 11.6788L14.4158 11.6999L14.4632 11.7212L14.5105 11.7426L14.5579 11.7641L14.6053 11.7858L14.6526 11.8075L14.7 11.8294L14.7474 11.8513L14.7947 11.8733L14.8421 11.8954L14.8895 11.9175L14.9368 11.9397L14.9842 11.9619L15.0316 11.9841L15.0789 12.0063L15.1263 12.0285L15.1737 12.0507L15.2211 12.0729L15.2684 12.0951L15.3158 12.1172L15.3632 12.1392L15.4105 12.1612L15.4579 12.1831L15.5053 12.2049L15.5526 12.2266L15.6 12.2481L15.6474 12.2696L15.6947 12.2909L15.7421 12.3121L15.7895 12.3332L15.8368 12.354L15.8842 12.3747L15.9316 12.3952L15.9789 12.4155L16.0263 12.4357L16.0737 12.4555L16.1211 12.4752L16.1684 12.4946L16.2158 12.5138L16.2632 12.5328L16.3105 12.5514L16.3579 12.5698L16.4053 12.588L16.4526 12.6058L16.5 12.6233L16.5474 12.6406L16.5947 12.6575L16.6421 12.674L16.6895 12.6903L16.7368 12.7062L16.7842 12.7218L16.8316 12.737L16.8789 12.7518L16.9263 12.7663L16.9737 12.7804L17.0211 12.7941L17.0684 12.8074L17.1158 12.8203L17.1632 12.8328L17.2105 12.8449L17.2579 12.8566L17.3053 12.8678L17.3526 12.8786L17.4 12.889L17.4474 12.899L17.4947 12.9085L17.5421 12.9176L17.5895 12.9262L17.6368 12.9343L17.6842 12.942L17.7316 12.9492L17.7789 12.956L17.8263 12.9623L17.8737 12.9681L17.9211 12.9734L17.9684 12.9783L18.0158 12.9826L18.0632 12.9865L18.1105 12.9899L18.1579 12.9928L18.2053 12.9952L18.2526 12.9972L18.3 12.9986L18.3474 12.9995L18.3947 13L18.4421 12.9999L18.4895 12.9994L18.5368 12.9984L18.5842 12.9968L18.6316 12.9948L18.6789 12.9923L18.7263 12.9893L18.7737 12.9858L18.8211 12.9818L18.8684 12.9774L18.9158 12.9724L18.9632 12.967L19.0105 12.9611L19.0579 12.9547L19.1053 12.9479L19.1526 12.9406L19.2 12.9328L19.2474 12.9245L19.2947 12.9158L19.3421 12.9067L19.3895 12.8971L19.4368 12.887L19.4842 12.8766L19.5316 12.8657L19.5789 12.8543L19.6263 12.8426L19.6737 12.8304L19.7211 12.8178L19.7684 12.8048L19.8158 12.7914L19.8632 12.7776L19.9105 12.7635L19.9579 12.7489L20.0053 12.734L20.0526 12.7187L20.1 12.7031L20.1474 12.6871L20.1947 12.6708L20.2421 12.6542L20.2895 12.6372L20.3368 12.6199L20.3842 12.6023L20.4316 12.5845L20.4789 12.5663L20.5263 12.5478L20.5737 12.5291L20.6211 12.5101L20.6684 12.4909L20.7158 12.4714L20.7632 12.4517L20.8105 12.4317L20.8579 12.4116L20.9053 12.3912L20.9526 12.3707L21 12.35" stroke="#02063B" stroke-width="2" stroke-miterlimit="10" stroke-linecap="round" stroke-linejoin="round"/>
</svg>
