<svg width="16" height="16" viewBox="0 0 16 16" fill="none" xmlns="http://www.w3.org/2000/svg">
<path fill-rule="evenodd" clip-rule="evenodd" d="M8.00008 0.666626C3.95008 0.666626 0.666748 3.94996 0.666748 7.99996C0.666748 12.05 3.95008 15.3333 8.00008 15.3333C12.0501 15.3333 15.3334 12.05 15.3334 7.99996C15.3334 3.94996 12.0501 0.666626 8.00008 0.666626ZM11.1787 6.75996C11.2373 6.69305 11.2818 6.61512 11.3098 6.53074C11.3378 6.44636 11.3486 6.35724 11.3416 6.26862C11.3346 6.18 11.31 6.09367 11.2691 6.01471C11.2283 5.93575 11.1721 5.86576 11.1038 5.80885C11.0355 5.75195 10.9565 5.70927 10.8715 5.68333C10.7865 5.6574 10.6971 5.64873 10.6087 5.65784C10.5202 5.66695 10.4345 5.69366 10.3566 5.73638C10.2786 5.77911 10.21 5.83699 10.1547 5.90663L7.28808 9.34596L5.80475 7.86196C5.67901 7.74052 5.51061 7.67332 5.33581 7.67484C5.16102 7.67636 4.99381 7.74648 4.8702 7.87008C4.7466 7.99369 4.67648 8.16089 4.67497 8.33569C4.67345 8.51049 4.74064 8.67889 4.86208 8.80463L6.86208 10.8046C6.92759 10.8701 7.00601 10.9212 7.09236 10.9547C7.17871 10.9881 7.27108 11.0033 7.36359 10.9991C7.45611 10.9949 7.54673 10.9714 7.62969 10.9303C7.71265 10.8891 7.78611 10.8311 7.84541 10.76L11.1787 6.75996Z" fill="#333333"/>
</svg>
