<svg width="24" height="24" viewBox="0 0 24 24" fill="none" xmlns="http://www.w3.org/2000/svg">
<path d="M3 16.0834L3.04737 16.2088L3.09474 16.332L3.14211 16.4531L3.18947 16.572L3.23684 16.6887L3.28421 16.803L3.33158 16.915L3.37895 17.0246L3.42632 17.1316L3.47368 17.2361L3.52105 17.3381L3.56842 17.4374L3.61579 17.534L3.66316 17.6279L3.71053 17.719L3.75789 17.8073L3.80526 17.8927L3.85263 17.9752L3.9 18.0548L3.94737 18.1314L3.99474 18.2049L4.04211 18.2754L4.08947 18.3428L4.13684 18.407L4.18421 18.4681L4.23158 18.526L4.27895 18.5806L4.32632 18.6321L4.37368 18.6802L4.42105 18.725L4.46842 18.7666L4.51579 18.8047L4.56316 18.8396L4.61053 18.871L4.65789 18.8991L4.70526 18.9237L4.75263 18.9449L4.8 18.9627L4.84737 18.9771L4.89474 18.988L4.94211 18.9954L4.98947 18.9995L5.03684 19L5.08421 18.9971L5.13158 18.9907L5.17895 18.9809L5.22632 18.9677L5.27368 18.951L5.32105 18.9308L5.36842 18.9073L5.41579 18.8803L5.46316 18.8499L5.51053 18.8162L5.55789 18.7791L5.60526 18.7386L5.65263 18.6948L5.7 18.6477L5.74737 18.5974L5.79474 18.5437L5.84211 18.4869L5.88947 18.4268L5.93684 18.3635L5.98421 18.2972L6.03158 18.2277L6.07895 18.1551L6.12632 18.0795L6.17368 18.0009L6.22105 17.9193L6.26842 17.8348L6.31579 17.7474L6.36316 17.6572L6.41053 17.5642L6.4579 17.4685L6.50526 17.37L6.55263 17.2689L6.6 17.1652L6.64737 17.0589L6.69474 16.9502L6.74211 16.839L6.78947 16.7254L6.83684 16.6094L6.88421 16.4912L6.93158 16.3708L6.97895 16.2482L7.02632 16.1235L7.07368 15.9968L7.12105 15.8681L7.16842 15.7375L7.21579 15.6051L7.26316 15.4709L7.31053 15.335L7.35789 15.1974L7.40526 15.0582L7.45263 14.9175L7.5 14.7754L7.54737 14.6319L7.59474 14.4872L7.64211 14.3411L7.68947 14.194L7.73684 14.0457L7.78421 13.8965L7.83158 13.7463L7.87895 13.5952L7.92632 13.4434L7.97368 13.2908L8.02105 13.1376L8.06842 12.9839L8.11579 12.8296L8.16316 12.675L8.21053 12.52L8.2579 12.3647L8.30526 12.2093L8.35263 12.0538L8.4 11.8982L8.44737 11.7427L8.49474 11.5873L8.54211 11.4322L8.58947 11.2773L8.63684 11.1227L8.68421 10.9686L8.73158 10.815L8.77895 10.662L8.82632 10.5097L8.87368 10.3581L8.92105 10.2073L8.96842 10.0574L9.01579 9.90841L9.06316 9.76049L9.11053 9.61367L9.15789 9.46804L9.20526 9.32365L9.25263 9.18058L9.3 9.03891L9.34737 8.8987L9.39474 8.76002L9.44211 8.62294L9.48947 8.48752L9.53684 8.35385L9.58421 8.22197L9.63158 8.09196L9.67895 7.96388L9.72632 7.83779L9.77368 7.71376L9.82105 7.59184L9.86842 7.4721L9.91579 7.3546L9.96316 7.23939L10.0105 7.12653L10.0579 7.01608L10.1053 6.90808L10.1526 6.80261L10.2 6.6997L10.2474 6.5994L10.2947 6.50178L10.3421 6.40687L10.3895 6.31472L10.4368 6.22538L10.4842 6.13889L10.5316 6.0553L10.5789 5.97464L10.6263 5.89695L10.6737 5.82228L10.7211 5.75066L10.7684 5.68213L10.8158 5.61671L10.8632 5.55445L10.9105 5.49537L10.9579 5.43951L11.0053 5.38688L11.0526 5.33752L11.1 5.29145L11.1474 5.24869L11.1947 5.20926L11.2421 5.17319L11.2895 5.14049L11.3368 5.11118L11.3842 5.08527L11.4316 5.06277L11.4789 5.0437L11.5263 5.02807L11.5737 5.01587L11.6211 5.00713L11.6684 5.00184L11.7158 5L11.7632 5.00162L11.8105 5.0067L11.8579 5.01523L11.9053 5.02721L11.9526 5.04263L12 5.06149L12.0474 5.08378L12.0947 5.10948L12.1421 5.13858L12.1895 5.17108L12.2368 5.20694L12.2842 5.24616L12.3316 5.28871L12.3789 5.33458L12.4263 5.38374L12.4737 5.43617L12.5211 5.49183L12.5684 5.55071L12.6158 5.61278L12.6632 5.678L12.7105 5.74634L12.7579 5.81777L12.8053 5.89226L12.8526 5.96975L12.9 6.05023L12.9474 6.13365L12.9947 6.21996L13.0421 6.30913L13.0895 6.4011L13.1368 6.49585L13.1842 6.5933L13.2316 6.69343L13.2789 6.79618L13.3263 6.9015L13.3737 7.00934L13.4211 7.11964L13.4684 7.23235L13.5158 7.34742L13.5632 7.46478L13.6105 7.58439L13.6579 7.70617L13.7053 7.83007L13.7526 7.95604L13.8 8.084L13.8474 8.21389L13.8947 8.34565L13.9421 8.47922L13.9895 8.61453L14.0368 8.75151L14.0842 8.89009L14.1316 9.03021L14.1789 9.1718L14.2263 9.31478L14.2737 9.45909L14.3211 9.60465L14.3684 9.7514L14.4158 9.89925L14.4632 10.0481L14.5105 10.198L14.5579 10.3488L14.6053 10.5003L14.6526 10.6526L14.7 10.8056L14.7474 10.9591L14.7947 11.1132L14.8421 11.2677L14.8895 11.4226L14.9368 11.5778L14.9842 11.7331L15.0316 11.8886L15.0789 12.0442L15.1263 12.1997L15.1737 12.3551L15.2211 12.5104L15.2684 12.6654L15.3158 12.8201L15.3632 12.9743L15.4105 13.1281L15.4579 13.2814L15.5053 13.434L15.5526 13.5859L15.6 13.737L15.6474 13.8872L15.6947 14.0365L15.7421 14.1849L15.7895 14.3321L15.8368 14.4782L15.8842 14.623L15.9316 14.7666L15.9789 14.9088L16.0263 15.0496L16.0737 15.1888L16.1211 15.3265L16.1684 15.4625L16.2158 15.5969L16.2632 15.7294L16.3105 15.8601L16.3579 15.9889L16.4053 16.1158L16.4526 16.2406L16.5 16.3633L16.5474 16.4839L16.5947 16.6022L16.6421 16.7183L16.6895 16.832L16.7368 16.9434L16.7842 17.0523L16.8316 17.1587L16.8789 17.2626L16.9263 17.3638L16.9737 17.4625L17.0211 17.5584L17.0684 17.6516L17.1158 17.7419L17.1632 17.8295L17.2105 17.9142L17.2579 17.9959L17.3053 18.0747L17.3526 18.1505L17.4 18.2233L17.4474 18.293L17.4947 18.3595L17.5421 18.423L17.5895 18.4832L17.6368 18.5403L17.6842 18.5941L17.7316 18.6447L17.7789 18.692L17.8263 18.736L17.8737 18.7767L17.9211 18.814L17.9684 18.848L18.0158 18.8785L18.0632 18.9057L18.1105 18.9295L18.1579 18.9498L18.2053 18.9667L18.2526 18.9802L18.3 18.9902L18.3474 18.9968L18.3947 18.9999L18.4421 18.9996L18.4895 18.9958L18.5368 18.9885L18.5842 18.9778L18.6316 18.9637L18.6789 18.9461L18.7263 18.9251L18.7737 18.9007L18.8211 18.8728L18.8684 18.8416L18.9158 18.807L18.9632 18.769L19.0105 18.7277L19.0579 18.6831L19.1053 18.6351L19.1526 18.5839L19.2 18.5294L19.2474 18.4717L19.2947 18.4109L19.3421 18.3468L19.3895 18.2796L19.4368 18.2093L19.4842 18.136L19.5316 18.0596L19.5789 17.9802L19.6263 17.8979L19.6737 17.8127L19.7211 17.7245L19.7684 17.6336L19.8158 17.5399L19.8632 17.4434L19.9105 17.3443L19.9579 17.2425L20.0053 17.1381L20.0526 17.0312L20.1 16.9218L20.1474 16.81L20.1947 16.6958L20.2421 16.5793L20.2895 16.4605L20.3368 16.3395L20.3842 16.2164L20.4316 16.0912L20.4789 15.964L20.5263 15.8348L20.5737 15.7037L20.6211 15.5708L20.6684 15.4362L20.7158 15.2998L20.7632 15.1618L20.8105 15.0222L20.8579 14.8812L20.9053 14.7387L20.9526 14.5949L21 14.4498" stroke="#333333" stroke-width="2" stroke-miterlimit="10" stroke-linecap="round" stroke-linejoin="round"/>
</svg>
