<svg width="24" height="24" viewBox="0 0 24 24" fill="none" xmlns="http://www.w3.org/2000/svg">
<path d="M20.958 15.3251C21.162 14.8391 20.579 14.4251 20.09 14.6411C19.1126 15.0701 18.0565 15.2908 16.989 15.2891C12.804 15.2891 9.412 11.9651 9.412 7.86406C9.41047 6.4794 9.80385 5.12303 10.546 3.95406C10.83 3.50606 10.489 2.88606 9.969 3.01806C5.96 4.04106 3 7.61306 3 11.8621C3 16.9091 7.175 21.0001 12.326 21.0001C16.226 21.0001 19.566 18.6551 20.958 15.3251Z" stroke="#333333" stroke-width="2" stroke-linecap="round" stroke-linejoin="round"/>
<path d="M15.611 3.10304C15.081 2.74904 14.449 3.38104 14.802 3.91104L15.432 4.85604C15.6876 5.2392 15.824 5.68946 15.824 6.15004C15.824 6.61061 15.6876 7.06087 15.432 7.44404L14.802 8.38904C14.449 8.91904 15.082 9.55104 15.612 9.19704L16.556 8.56704C16.9392 8.31147 17.3894 8.17509 17.85 8.17509C18.3106 8.17509 18.7608 8.31147 19.144 8.56704L20.089 9.19704C20.619 9.55104 21.251 8.91904 20.897 8.38904L20.267 7.44404C20.0114 7.06087 19.8751 6.61061 19.8751 6.15004C19.8751 5.68946 20.0114 5.2392 20.267 4.85604L20.897 3.91104C21.251 3.38104 20.619 2.74904 20.088 3.10304L19.144 3.73304C18.7608 3.98861 18.3106 4.12499 17.85 4.12499C17.3894 4.12499 16.9392 3.98861 16.556 3.73304L15.611 3.10304V3.10304Z" stroke="#333333" stroke-width="2" stroke-linecap="round" stroke-linejoin="round"/>
</svg>
