<svg width="24" height="24" viewBox="0 0 24 24" fill="none" xmlns="http://www.w3.org/2000/svg">
<path d="M10.5789 10.1715L10.6263 9.86637L10.6737 9.56564L10.7211 9.26993L10.7684 8.97986L10.8158 8.69604L10.8632 8.41903L10.9105 8.14943L10.9579 7.88778L11.0053 7.63462L11.0526 7.39048L11.1 7.15587L11.1474 6.93126L11.1947 6.71713L11.2421 6.5139L11.2895 6.32201L11.3368 6.14185L11.3842 5.97379L11.4316 5.81818L11.4789 5.67534L11.5263 5.54556L11.5737 5.42912L11.6211 5.32625L11.6684 5.23717L11.7158 5.16206L11.7632 5.10108L11.8105 5.05434L11.8579 5.02196L11.9053 5.00399L11.9526 5.00047L12 5.01141L12.0474 5.03679L12.0947 5.07656L12.1421 5.13062L12.1895 5.19888L12.2368 5.28118L12.2842 5.37737L12.3316 5.48723L12.3789 5.61055L12.4263 5.74707L12.4737 5.89651L12.5211 6.05855L12.5684 6.23287L12.6158 6.41911L12.6632 6.61687L12.7105 6.82575L12.7579 7.04532L12.8053 7.27513L12.8526 7.51469L12.9 7.76352L12.9474 8.02111L12.9947 8.28691L13.0421 8.56039L13.0895 8.84097L13.1368 9.12807L13.1842 9.42111L13.2316 9.71948L13.2789 10.0226L13.3263 10.3297L13.3737 10.6403L13.4211 10.9538L13.4684 11.2693L13.5158 11.5864L13.5632 11.9044L13.6105 12.2225L13.6579 12.5402L13.7053 12.8568L13.7526 13.1716L13.8 13.484L13.8474 13.7933L13.8947 14.0989L13.9421 14.4002L13.9895 14.6965L14.0368 14.9872L14.0842 15.2718L14.1316 15.5496L14.1789 15.8201L14.2263 16.0827L14.2737 16.3368L14.3211 16.582L14.3684 16.8178L14.4158 17.0436L14.4632 17.2589L14.5105 17.4634L14.5579 17.6566L14.6053 17.8382L14.6526 18.0076L14.7 18.1647L14.7474 18.309L14.7947 18.4403L14.8421 18.5583L14.8895 18.6628L14.9368 18.7534L14.9842 18.8302L15.0316 18.8928L15.0789 18.9411L15.1263 18.9752L15.1737 18.9948L15.2211 19L15.2684 18.9907L15.3158 18.967L15.3632 18.9289L15.4105 18.8765L15.4579 18.8098L15.5053 18.7291L15.5526 18.6345L15.6 18.5262L15.6474 18.4044L15.6947 18.2694L15.7421 18.1215L15.7895 17.9609L15.8368 17.7879L15.8842 17.6031L15.9316 17.4066L15.9789 17.199L16.0263 16.9806L16.0737 16.752L16.1211 16.5135L16.1684 16.2657L16.2158 16.0091L16.2632 15.7442L16.3105 15.4716L16.3579 15.1918L16.4053 14.9054L16.4526 14.613L16.5 14.3152L16.5474 14.0127L16.5947 13.7059L16.6421 13.3957L16.6895 13.0826L16.7368 12.7672L16.7842 12.4502L16.8316 12.1324L16.879 11.8142L16.9263 11.4964L16.9737 11.1797L17.0211 10.8647L17.0684 10.552L17.1158 10.2423L17.1632 9.93621L17.2105 9.63441L17.2579 9.33749L17.3053 9.04607L17.3526 8.76076L17.4 8.48213L17.4474 8.21077L17.4947 7.94724L17.5421 7.69209L17.5895 7.44583L17.6368 7.20898L17.6842 6.98203L17.7316 6.76544L17.7789 6.55967L17.8263 6.36514L17.8737 6.18224L17.9211 6.01136L17.9684 5.85286L18.0158 5.70706L18.0632 5.57425L18.1105 5.45472L18.1579 5.34871L18.2053 5.25644L18.2526 5.1781L18.3 5.11385L18.3474 5.06383L18.3947 5.02813L18.4421 5.00684L18.4895 5L18.5368 5.00762L18.5842 5.02968L18.6316 5.06614L18.679 5.11692L18.7263 5.18192L18.7737 5.26101L18.8211 5.35402L18.8684 5.46076L18.9158 5.581L18.9632 5.71451L19.0105 5.861L19.0579 6.02017L19.1053 6.1917L19.1526 6.37522L19.2 6.57037L19.2474 6.77673L19.2947 6.99388L19.3421 7.22137L19.3895 7.45873L19.4368 7.70548L19.4842 7.9611L19.5316 8.22506L19.579 8.49682L19.6263 8.77581L19.6737 9.06147L19.7211 9.35319L19.7684 9.65039L19.8158 9.95244L19.8632 10.2587L19.9105 10.5686L19.9579 10.8814L20.0053 11.1966L20.0526 11.5134L20.1 11.8312L20.1474 12.1493L20.1947 12.4672L20.2421 12.7841L20.2895 13.0993L20.3368 13.4123L20.3842 13.7224L20.4316 14.0289L20.479 14.3313L20.5263 14.6288L20.5737 14.9208L20.6211 15.2069L20.6684 15.4863L20.7158 15.7585L20.7632 16.023L20.8105 16.2791L20.8579 16.5265L20.9053 16.7644L20.9526 16.9925L21 17.2103" stroke="#02063B" stroke-width="2" stroke-miterlimit="10" stroke-linecap="round" stroke-linejoin="round"/>
<circle cx="10" cy="13" r="1" fill="#333333"/>
</svg>
