<svg width="24" height="24" viewBox="0 0 24 24" fill="none" xmlns="http://www.w3.org/2000/svg">
<path d="M3 16.6434L3.04737 16.4006L3.09474 16.1487L3.14211 15.8882L3.18947 15.6197L3.23684 15.3437L3.28421 15.0608L3.33158 14.7716L3.37895 14.4766L3.42632 14.1766L3.47368 13.872L3.52105 13.5636L3.56842 13.2519L3.61579 12.9377L3.66316 12.6215L3.71053 12.304L3.75789 11.986L3.80526 11.6679L3.85263 11.3505L3.9 11.0345L3.94737 10.7205L3.99474 10.4091L4.04211 10.101L4.08947 9.79677L4.13684 9.49713L4.18421 9.20267L4.23158 8.91399L4.27895 8.63168L4.32632 8.35633L4.37368 8.0885L4.42105 7.82876L4.46842 7.57764L4.51579 7.33564L4.56316 7.10329L4.61053 6.88105L4.6579 6.66939L4.70526 6.46873L4.75263 6.27951L4.8 6.1021L4.84737 5.93687L4.89474 5.78417L4.94211 5.64431L4.98947 5.51758L5.03684 5.40424L5.08421 5.30453L5.13158 5.21865L5.17895 5.14677L5.22632 5.08906L5.27368 5.04562L5.32105 5.01655L5.36842 5.0019L5.41579 5.00171L5.46316 5.01597L5.51053 5.04467L5.5579 5.08773L5.60526 5.14507L5.65263 5.21657L5.7 5.30209L5.74737 5.40144L5.79474 5.51442L5.84211 5.6408L5.88947 5.78032L5.93684 5.93269L5.98421 6.09759L6.03158 6.27468L6.07895 6.4636L6.12632 6.66396L6.17368 6.87534L6.22105 7.0973L6.26842 7.3294L6.31579 7.57114L6.36316 7.82203L6.41053 8.08156L6.4579 8.34917L6.50526 8.62433L6.55263 8.90647L6.6 9.19499L6.64737 9.48931L6.69474 9.78881L6.74211 10.0929L6.78947 10.4009L6.83684 10.7122L6.88421 11.0262L6.93158 11.3422L6.97895 11.6595L7.02632 11.9776L7.07368 12.2957L7.12105 12.6132L7.16842 12.9294L7.21579 13.2437L7.26316 13.5554L7.31053 13.8639L7.3579 14.1686L7.40526 14.4688L7.45263 14.7639L7.5 15.0533L7.54737 15.3363L7.59474 15.6125L7.64211 15.8812L7.68947 16.1419L7.73684 16.3941L7.78421 16.6371L7.83158 16.8706L7.87895 17.0941L7.92632 17.307L7.97369 17.5089L8.02105 17.6995L8.06842 17.8782L8.11579 18.0449L8.16316 18.1991L8.21053 18.3404L8.2579 18.4687L8.30526 18.5835L8.35263 18.6848L8.4 18.7723L8.44737 18.8458L8.49474 18.9052L8.54211 18.9503L8.58947 18.981L8.63684 18.9973L8.68421 18.9991L8.73158 18.9865L8.77895 18.9595L8.82632 18.9181L8.87369 18.8624L8.92105 18.7925L8.96842 18.7086L9.01579 18.6108L9.06316 18.4994L9.11053 18.3745L9.1579 18.2365L9.20526 18.0856L9.25263 17.9222L9.3 17.7464L9.34737 17.5589L9.39474 17.3598L9.44211 17.1497L9.48947 16.9289L9.53684 16.6979L9.58421 16.4573L9.63158 16.2074L9.67895 15.9489L9.72632 15.6821L9.77369 15.4078L9.82105 15.1265L9.86842 14.8386L9.91579 14.545L9.96316 14.246L10.0105 13.9424L10.0579 13.6349L10.1053 13.3239L10.1526 13.0102L10.2 12.6944L10.2474 12.3772L10.2947 12.0592L10.3421 11.741L10.3895 11.4234L10.4368 11.1071L10.4842 10.7925L10.5316 10.4804L10.5789 10.1715L10.6263 9.86637L10.6737 9.56564L10.7211 9.26993L10.7684 8.97986L10.8158 8.69604L10.8632 8.41903L10.9105 8.14943L10.9579 7.88778L11.0053 7.63462L11.0526 7.39048L11.1 7.15587L11.1474 6.93126L11.1947 6.71713L11.2421 6.5139L11.2895 6.32201L11.3368 6.14185L11.3842 5.97379L11.4316 5.81818L11.4789 5.67534L11.5263 5.54556L11.5737 5.42912L11.6211 5.32625L11.6684 5.23717L11.7158 5.16206L11.7632 5.10108L11.8105 5.05434L11.8579 5.02196L11.9053 5.00399L11.9526 5.00047L12 5.01141L12.0474 5.03679L12.0947 5.07656L12.1421 5.13062L12.1895 5.19888L12.2368 5.28118L12.2842 5.37737L12.3316 5.48723L12.3789 5.61055L12.4263 5.74707L12.4737 5.89651L12.5211 6.05855L12.5684 6.23287L12.6158 6.41911L12.6632 6.61687L12.7105 6.82575L12.7579 7.04532L12.8053 7.27513L12.8526 7.51469L12.9 7.76352L12.9474 8.02111L12.9947 8.28691L13.0421 8.56039L13.0895 8.84097L13.1368 9.12807L13.1842 9.42111L13.2316 9.71948L13.2789 10.0226L13.3263 10.3297L13.3737 10.6403L13.4211 10.9537L13.4684 11.2693L13.5158 11.5864L13.5632 11.9044L13.6105 12.2225L13.6579 12.5402L13.7053 12.8568L13.7526 13.1716L13.8 13.484L13.8474 13.7933L13.8947 14.0989L13.9421 14.4002L13.9895 14.6965L14.0368 14.9872L14.0842 15.2718L14.1316 15.5496L14.1789 15.8201L14.2263 16.0827L14.2737 16.3368L14.3211 16.582L14.3684 16.8178L14.4158 17.0436L14.4632 17.2589L14.5105 17.4634L14.5579 17.6566L14.6053 17.8382L14.6526 18.0076L14.7 18.1647L14.7474 18.309L14.7947 18.4403L14.8421 18.5583L14.8895 18.6628L14.9368 18.7534L14.9842 18.8302L15.0316 18.8928L15.0789 18.9411L15.1263 18.9752L15.1737 18.9948L15.2211 19L15.2684 18.9907L15.3158 18.967L15.3632 18.9289L15.4105 18.8765L15.4579 18.8098L15.5053 18.7291L15.5526 18.6345L15.6 18.5262L15.6474 18.4044L15.6947 18.2694L15.7421 18.1215L15.7895 17.9609L15.8368 17.7879L15.8842 17.6031L15.9316 17.4066L15.9789 17.199L16.0263 16.9806L16.0737 16.752L16.1211 16.5135L16.1684 16.2657L16.2158 16.0091L16.2632 15.7442L16.3105 15.4716L16.3579 15.1918L16.4053 14.9054L16.4526 14.613L16.5 14.3152L16.5474 14.0127L16.5947 13.7059L16.6421 13.3957L16.6895 13.0826L16.7368 12.7672L16.7842 12.4502L16.8316 12.1324L16.8789 11.8142L16.9263 11.4964L16.9737 11.1797L17.0211 10.8647L17.0684 10.552L17.1158 10.2423L17.1632 9.93621L17.2105 9.63441L17.2579 9.33749L17.3053 9.04607L17.3526 8.76075L17.4 8.48213L17.4474 8.21077L17.4947 7.94724L17.5421 7.69209L17.5895 7.44583L17.6368 7.20898L17.6842 6.98203L17.7316 6.76544L17.779 6.55967L17.8263 6.36514L17.8737 6.18224L17.9211 6.01136L17.9684 5.85286L18.0158 5.70706L18.0632 5.57425L18.1105 5.45472L18.1579 5.34871L18.2053 5.25644L18.2526 5.1781L18.3 5.11385L18.3474 5.06383L18.3947 5.02813L18.4421 5.00684L18.4895 5L18.5368 5.00762L18.5842 5.02968L18.6316 5.06614L18.679 5.11692L18.7263 5.18192L18.7737 5.26101L18.8211 5.35402L18.8684 5.46076L18.9158 5.581L18.9632 5.71451L19.0105 5.861L19.0579 6.02017L19.1053 6.1917L19.1526 6.37522L19.2 6.57037L19.2474 6.77673L19.2947 6.99388L19.3421 7.22137L19.3895 7.45873L19.4368 7.70548L19.4842 7.9611L19.5316 8.22506L19.579 8.49682L19.6263 8.77581L19.6737 9.06147L19.7211 9.35319L19.7684 9.65039L19.8158 9.95244L19.8632 10.2587L19.9105 10.5686L19.9579 10.8814L20.0053 11.1966L20.0526 11.5134L20.1 11.8312L20.1474 12.1493L20.1947 12.4672L20.2421 12.7841L20.2895 13.0993L20.3368 13.4123L20.3842 13.7224L20.4316 14.0289L20.479 14.3313L20.5263 14.6288L20.5737 14.9208L20.6211 15.2069L20.6684 15.4863L20.7158 15.7585L20.7632 16.023L20.8105 16.2791L20.8579 16.5265L20.9053 16.7644L20.9526 16.9925L21 17.2103" stroke="#333333" stroke-width="2" stroke-miterlimit="10" stroke-linecap="round" stroke-linejoin="round"/>
</svg>
